# xmcd
#
# Track frame offsets:
#	150
#	12199
#	28080
#	45185
#	58043
#	69808
#	81383
#	96604
#	112625
#	128132
#	142967
#	155525
#	171252
#
# Disc length: 2485 seconds
#
# Revision: 1
# Processed by: cddbd v1.4PL0 Copyright (c) Steve Scherf et al.
# Submitted via: audiograbber 1.81.01
#
DISCID=a109b30d
DTITLE=John Colbert - The Deal is Done
DYEAR=1999
DGENRE=Country
TTITLE0=We'll Do Love Sometime
TTITLE1=Honest Man (is hard to find)
TTITLE2=Wings of Love
TTITLE3=I'll Never Stop Loving You
TTITLE4=Never Lack For Love
TTITLE5=Hair of the Dog
TTITLE6=The Deal is Done
TTITLE7=Big City Game
TTITLE8=Under the Influence
TTITLE9=You Tell Me
TTITLE10=Once Upon A Time
TTITLE11=A Love Like This
TTITLE12=Away From You
EXTD=
EXTT0=
EXTT1=
EXTT2=
EXTT3=
EXTT4=
EXTT5=
EXTT6=
EXTT7=
EXTT8=
EXTT9=
EXTT10=
EXTT11=
EXTT12=
PLAYORDER=
